# xmcd CD database file
#
# Track frame offsets:
#	150
#	13710
#	40646
#	53252
#	60927
#	77738
#	93120
#	116617
#	126102
#	149558
#	162846
#	183769
#	198793
#	218207
#	231695
#
# Disc length: 3359 seconds
#
# Revision: 0
# Processed by: cddbd v1.5.2PL0 Copyright (c) Steve Scherf et al.
# Submitted via: CDex 1.51
#
DISCID=bd0d1d0f
DTITLE=Deuter - Celebration Of Light
DYEAR=2009
DGENRE=New Age
TTITLE0=In Dulci Jubilo
TTITLE1=Greensleeves
TTITLE2=Prelude # 1 In C - Ave Maria
TTITLE3=Als Ich Bei Meinen Schafen Wacht
TTITLE4=Coventry Carol
TTITLE5=Stille Nacht
TTITLE6=Es Ist Ein Ros' Entsprungen
TTITLE7=Singt Und Klingt
TTITLE8=Largo - The Four Seasons, Winter
TTITLE9=Leise Rieselt Der Schnee
TTITLE10=Es Kommt Ein Schiff Geladen
TTITLE11=Frozen Waters
TTITLE12=Maria Durch Ein Dornwald Ging
TTITLE13=Spagnoletta
TTITLE14=Gegruszet Seist Du, Maria
EXTD=YEAR: 2009
EXTT0=
EXTT1=
EXTT2=
EXTT3=
EXTT4=
EXTT5=
EXTT6=
EXTT7=
EXTT8=
EXTT9=
EXTT10=
EXTT11=
EXTT12=
EXTT13=
EXTT14=
PLAYORDER=
